{
	"patcher" : 	{
		"fileversion" : 1,
		"rect" : [ 111.0, 218.0, 1001.0, 377.0 ],
		"bglocked" : 0,
		"defrect" : [ 111.0, 218.0, 1001.0, 377.0 ],
		"openrect" : [ 0.0, 0.0, 0.0, 0.0 ],
		"openinpresentation" : 0,
		"default_fontsize" : 10.0,
		"default_fontface" : 0,
		"default_fontname" : "Arial",
		"gridonopen" : 0,
		"gridsize" : [ 15.0, 15.0 ],
		"gridsnaponopen" : 0,
		"toolbarvisible" : 1,
		"boxanimatetime" : 200,
		"imprint" : 0,
		"metadata" : [  ],
		"boxes" : [ 			{
				"box" : 				{
					"maxclass" : "toggle",
					"outlettype" : [ "int" ],
					"presentation_rect" : [ 905.0, 225.0, 0.0, 0.0 ],
					"numinlets" : 1,
					"patching_rect" : [ 905.0, 225.0, 20.0, 20.0 ],
					"id" : "obj-59",
					"numoutlets" : 1
				}

			}
, 			{
				"box" : 				{
					"maxclass" : "slider",
					"outlettype" : [ "" ],
					"presentation_rect" : [ 881.0, 124.0, 0.0, 0.0 ],
					"numinlets" : 1,
					"patching_rect" : [ 881.0, 124.0, 20.0, 140.0 ],
					"id" : "obj-60",
					"floatoutput" : 1,
					"numoutlets" : 1,
					"size" : 1.0
				}

			}
, 			{
				"box" : 				{
					"maxclass" : "message",
					"text" : "/1/toggle4 $1",
					"outlettype" : [ "" ],
					"fontsize" : 9.0,
					"presentation_rect" : [ 904.0, 249.0, 0.0, 0.0 ],
					"numinlets" : 2,
					"patching_rect" : [ 904.0, 248.0, 63.0, 15.0 ],
					"id" : "obj-61",
					"fontname" : "Arial",
					"numoutlets" : 1
				}

			}
, 			{
				"box" : 				{
					"maxclass" : "message",
					"text" : "/1/fader4 $1",
					"outlettype" : [ "" ],
					"fontsize" : 9.0,
					"presentation_rect" : [ 877.0, 276.0, 0.0, 0.0 ],
					"numinlets" : 2,
					"patching_rect" : [ 877.0, 276.0, 59.0, 15.0 ],
					"id" : "obj-62",
					"fontname" : "Arial",
					"numoutlets" : 1
				}

			}
, 			{
				"box" : 				{
					"maxclass" : "toggle",
					"outlettype" : [ "int" ],
					"presentation_rect" : [ 809.0, 226.0, 0.0, 0.0 ],
					"numinlets" : 1,
					"patching_rect" : [ 809.0, 226.0, 20.0, 20.0 ],
					"id" : "obj-55",
					"numoutlets" : 1
				}

			}
, 			{
				"box" : 				{
					"maxclass" : "slider",
					"outlettype" : [ "" ],
					"presentation_rect" : [ 785.0, 125.0, 0.0, 0.0 ],
					"numinlets" : 1,
					"patching_rect" : [ 785.0, 125.0, 20.0, 140.0 ],
					"id" : "obj-56",
					"floatoutput" : 1,
					"numoutlets" : 1,
					"size" : 1.0
				}

			}
, 			{
				"box" : 				{
					"maxclass" : "message",
					"text" : "/1/toggle3 $1",
					"outlettype" : [ "" ],
					"fontsize" : 9.0,
					"presentation_rect" : [ 808.0, 250.0, 0.0, 0.0 ],
					"numinlets" : 2,
					"patching_rect" : [ 808.0, 250.0, 63.0, 15.0 ],
					"id" : "obj-57",
					"fontname" : "Arial",
					"numoutlets" : 1
				}

			}
, 			{
				"box" : 				{
					"maxclass" : "message",
					"text" : "/1/fader3 $1",
					"outlettype" : [ "" ],
					"fontsize" : 9.0,
					"presentation_rect" : [ 781.0, 277.0, 0.0, 0.0 ],
					"numinlets" : 2,
					"patching_rect" : [ 781.0, 276.0, 59.0, 15.0 ],
					"id" : "obj-58",
					"fontname" : "Arial",
					"numoutlets" : 1
				}

			}
, 			{
				"box" : 				{
					"maxclass" : "toggle",
					"outlettype" : [ "int" ],
					"presentation_rect" : [ 708.0, 225.0, 0.0, 0.0 ],
					"numinlets" : 1,
					"patching_rect" : [ 708.0, 225.0, 20.0, 20.0 ],
					"id" : "obj-51",
					"numoutlets" : 1
				}

			}
, 			{
				"box" : 				{
					"maxclass" : "slider",
					"outlettype" : [ "" ],
					"presentation_rect" : [ 684.0, 124.0, 0.0, 0.0 ],
					"numinlets" : 1,
					"patching_rect" : [ 684.0, 124.0, 20.0, 140.0 ],
					"id" : "obj-52",
					"floatoutput" : 1,
					"numoutlets" : 1,
					"size" : 1.0
				}

			}
, 			{
				"box" : 				{
					"maxclass" : "message",
					"text" : "/1/toggle2 $1",
					"outlettype" : [ "" ],
					"fontsize" : 9.0,
					"presentation_rect" : [ 707.0, 249.0, 0.0, 0.0 ],
					"numinlets" : 2,
					"patching_rect" : [ 707.0, 249.0, 63.0, 15.0 ],
					"id" : "obj-53",
					"fontname" : "Arial",
					"numoutlets" : 1
				}

			}
, 			{
				"box" : 				{
					"maxclass" : "message",
					"text" : "/1/fader2 $1",
					"outlettype" : [ "" ],
					"fontsize" : 9.0,
					"presentation_rect" : [ 680.0, 276.0, 0.0, 0.0 ],
					"numinlets" : 2,
					"patching_rect" : [ 680.0, 276.0, 59.0, 15.0 ],
					"id" : "obj-54",
					"fontname" : "Arial",
					"numoutlets" : 1
				}

			}
, 			{
				"box" : 				{
					"maxclass" : "toggle",
					"outlettype" : [ "int" ],
					"numinlets" : 1,
					"patching_rect" : [ 614.0, 227.0, 20.0, 20.0 ],
					"id" : "obj-50",
					"numoutlets" : 1
				}

			}
, 			{
				"box" : 				{
					"maxclass" : "slider",
					"outlettype" : [ "" ],
					"numinlets" : 1,
					"patching_rect" : [ 590.0, 126.0, 20.0, 140.0 ],
					"id" : "obj-46",
					"floatoutput" : 1,
					"numoutlets" : 1,
					"size" : 1.0
				}

			}
, 			{
				"box" : 				{
					"maxclass" : "message",
					"text" : "/1/toggle1 $1",
					"outlettype" : [ "" ],
					"fontsize" : 9.0,
					"presentation_rect" : [ 826.0, 194.0, 0.0, 0.0 ],
					"numinlets" : 2,
					"patching_rect" : [ 613.0, 251.0, 63.0, 15.0 ],
					"id" : "obj-43",
					"fontname" : "Arial",
					"numoutlets" : 1
				}

			}
, 			{
				"box" : 				{
					"maxclass" : "message",
					"text" : "/1/fader1 $1",
					"outlettype" : [ "" ],
					"fontsize" : 9.0,
					"presentation_rect" : [ 759.0, 194.0, 0.0, 0.0 ],
					"numinlets" : 2,
					"patching_rect" : [ 586.0, 278.0, 59.0, 15.0 ],
					"id" : "obj-44",
					"fontname" : "Arial",
					"numoutlets" : 1
				}

			}
, 			{
				"box" : 				{
					"maxclass" : "newobj",
					"text" : "udpsend 127.0.0.1 3333",
					"fontsize" : 9.0,
					"numinlets" : 1,
					"patching_rect" : [ 586.0, 301.0, 108.0, 17.0 ],
					"id" : "obj-45",
					"fontname" : "Arial",
					"numoutlets" : 0
				}

			}
, 			{
				"box" : 				{
					"maxclass" : "meter~",
					"outlettype" : [ "float" ],
					"numinlets" : 1,
					"patching_rect" : [ 528.142883, 212.0, 12.0, 110.0 ],
					"id" : "obj-31",
					"numoutlets" : 1
				}

			}
, 			{
				"box" : 				{
					"maxclass" : "meter~",
					"outlettype" : [ "float" ],
					"numinlets" : 1,
					"patching_rect" : [ 514.142883, 212.0, 12.0, 110.0 ],
					"id" : "obj-32",
					"numoutlets" : 1
				}

			}
, 			{
				"box" : 				{
					"maxclass" : "meter~",
					"outlettype" : [ "float" ],
					"numinlets" : 1,
					"patching_rect" : [ 500.142883, 212.0, 12.0, 110.0 ],
					"id" : "obj-35",
					"numoutlets" : 1
				}

			}
, 			{
				"box" : 				{
					"maxclass" : "meter~",
					"outlettype" : [ "float" ],
					"numinlets" : 1,
					"patching_rect" : [ 486.142883, 212.0, 12.0, 110.0 ],
					"id" : "obj-36",
					"numoutlets" : 1
				}

			}
, 			{
				"box" : 				{
					"maxclass" : "meter~",
					"outlettype" : [ "float" ],
					"numinlets" : 1,
					"patching_rect" : [ 472.142883, 212.0, 12.0, 110.0 ],
					"id" : "obj-37",
					"numoutlets" : 1
				}

			}
, 			{
				"box" : 				{
					"maxclass" : "meter~",
					"outlettype" : [ "float" ],
					"numinlets" : 1,
					"patching_rect" : [ 458.142883, 212.0, 12.0, 110.0 ],
					"id" : "obj-38",
					"numoutlets" : 1
				}

			}
, 			{
				"box" : 				{
					"maxclass" : "meter~",
					"outlettype" : [ "float" ],
					"numinlets" : 1,
					"patching_rect" : [ 444.142883, 212.0, 12.0, 110.0 ],
					"id" : "obj-39",
					"numoutlets" : 1
				}

			}
, 			{
				"box" : 				{
					"maxclass" : "meter~",
					"outlettype" : [ "float" ],
					"numinlets" : 1,
					"patching_rect" : [ 430.0, 212.0, 12.0, 110.0 ],
					"id" : "obj-40",
					"numoutlets" : 1
				}

			}
, 			{
				"box" : 				{
					"maxclass" : "meter~",
					"outlettype" : [ "float" ],
					"numinlets" : 1,
					"patching_rect" : [ 416.142883, 212.0, 12.0, 110.0 ],
					"id" : "obj-30",
					"numoutlets" : 1
				}

			}
, 			{
				"box" : 				{
					"maxclass" : "meter~",
					"outlettype" : [ "float" ],
					"numinlets" : 1,
					"patching_rect" : [ 402.142883, 212.0, 12.0, 110.0 ],
					"id" : "obj-29",
					"numoutlets" : 1
				}

			}
, 			{
				"box" : 				{
					"maxclass" : "meter~",
					"outlettype" : [ "float" ],
					"numinlets" : 1,
					"patching_rect" : [ 388.142883, 212.0, 12.0, 110.0 ],
					"id" : "obj-26",
					"numoutlets" : 1
				}

			}
, 			{
				"box" : 				{
					"maxclass" : "meter~",
					"outlettype" : [ "float" ],
					"numinlets" : 1,
					"patching_rect" : [ 374.142883, 212.0, 12.0, 110.0 ],
					"id" : "obj-25",
					"numoutlets" : 1
				}

			}
, 			{
				"box" : 				{
					"maxclass" : "meter~",
					"outlettype" : [ "float" ],
					"numinlets" : 1,
					"patching_rect" : [ 360.142853, 212.0, 12.0, 110.0 ],
					"id" : "obj-24",
					"numoutlets" : 1
				}

			}
, 			{
				"box" : 				{
					"maxclass" : "meter~",
					"outlettype" : [ "float" ],
					"numinlets" : 1,
					"patching_rect" : [ 346.142853, 212.0, 12.0, 110.0 ],
					"id" : "obj-22",
					"numoutlets" : 1
				}

			}
, 			{
				"box" : 				{
					"maxclass" : "meter~",
					"outlettype" : [ "float" ],
					"numinlets" : 1,
					"patching_rect" : [ 332.142853, 212.0, 12.0, 110.0 ],
					"id" : "obj-21",
					"numoutlets" : 1
				}

			}
, 			{
				"box" : 				{
					"maxclass" : "meter~",
					"outlettype" : [ "float" ],
					"numinlets" : 1,
					"patching_rect" : [ 318.0, 212.0, 12.0, 110.0 ],
					"id" : "obj-23",
					"numoutlets" : 1
				}

			}
, 			{
				"box" : 				{
					"maxclass" : "newobj",
					"text" : "adc~ 1 2 3 4 5 6 7 8 9 10 11 12 13 14 15 16",
					"outlettype" : [ "signal", "signal", "signal", "signal", "signal", "signal", "signal", "signal", "signal", "signal", "signal", "signal", "signal", "signal", "signal", "signal" ],
					"fontsize" : 10.0,
					"numinlets" : 1,
					"patching_rect" : [ 315.0, 175.0, 221.5, 18.0 ],
					"id" : "obj-18",
					"fontname" : "Arial",
					"numoutlets" : 16
				}

			}
, 			{
				"box" : 				{
					"maxclass" : "number",
					"outlettype" : [ "int", "bang" ],
					"fontsize" : 10.0,
					"numinlets" : 1,
					"patching_rect" : [ 51.0, 191.0, 50.0, 18.0 ],
					"id" : "obj-19",
					"fontname" : "Arial",
					"numoutlets" : 2
				}

			}
, 			{
				"box" : 				{
					"maxclass" : "flonum",
					"triscale" : 0.9,
					"outlettype" : [ "float", "bang" ],
					"fontsize" : 9.0,
					"bgcolor" : [ 0.866667, 0.866667, 0.866667, 1.0 ],
					"minimum" : 0.0,
					"numinlets" : 1,
					"patching_rect" : [ 118.0, 191.0, 51.0, 17.0 ],
					"maximum" : 1.0,
					"id" : "obj-27",
					"fontname" : "Arial",
					"numoutlets" : 2,
					"htextcolor" : [ 0.870588, 0.870588, 0.870588, 1.0 ]
				}

			}
, 			{
				"box" : 				{
					"maxclass" : "message",
					"text" : "/amp $1",
					"outlettype" : [ "" ],
					"fontsize" : 9.0,
					"numinlets" : 2,
					"patching_rect" : [ 118.0, 217.0, 49.0, 15.0 ],
					"id" : "obj-28",
					"fontname" : "Arial",
					"numoutlets" : 1
				}

			}
, 			{
				"box" : 				{
					"maxclass" : "message",
					"text" : "/pitch $1",
					"outlettype" : [ "" ],
					"fontsize" : 9.0,
					"numinlets" : 2,
					"patching_rect" : [ 51.0, 217.0, 53.0, 15.0 ],
					"id" : "obj-33",
					"fontname" : "Arial",
					"numoutlets" : 1
				}

			}
, 			{
				"box" : 				{
					"maxclass" : "newobj",
					"text" : "udpsend 127.0.0.1 10001",
					"fontsize" : 9.0,
					"numinlets" : 1,
					"patching_rect" : [ 51.0, 240.0, 113.0, 17.0 ],
					"id" : "obj-34",
					"fontname" : "Arial",
					"numoutlets" : 0
				}

			}
, 			{
				"box" : 				{
					"maxclass" : "flonum",
					"outlettype" : [ "float", "bang" ],
					"fontsize" : 10.0,
					"numinlets" : 1,
					"patching_rect" : [ 324.0, 60.0, 50.0, 18.0 ],
					"id" : "obj-5",
					"fontname" : "Arial",
					"numoutlets" : 2
				}

			}
, 			{
				"box" : 				{
					"maxclass" : "newobj",
					"text" : "*~ 1.",
					"outlettype" : [ "signal" ],
					"fontsize" : 9.0,
					"numinlets" : 2,
					"patching_rect" : [ 293.0, 139.0, 35.0, 17.0 ],
					"id" : "obj-7",
					"fontname" : "Arial",
					"numoutlets" : 1
				}

			}
, 			{
				"box" : 				{
					"maxclass" : "message",
					"text" : "$1 2",
					"outlettype" : [ "" ],
					"fontsize" : 9.0,
					"numinlets" : 2,
					"patching_rect" : [ 292.0, 61.0, 31.0, 15.0 ],
					"id" : "obj-9",
					"fontname" : "Arial",
					"numoutlets" : 1
				}

			}
, 			{
				"box" : 				{
					"maxclass" : "newobj",
					"text" : "line~",
					"outlettype" : [ "signal", "bang" ],
					"fontsize" : 9.0,
					"numinlets" : 2,
					"patching_rect" : [ 292.0, 82.0, 32.0, 17.0 ],
					"id" : "obj-13",
					"fontname" : "Arial",
					"numoutlets" : 2
				}

			}
, 			{
				"box" : 				{
					"maxclass" : "newobj",
					"text" : "cycle~ 500",
					"outlettype" : [ "signal" ],
					"fontsize" : 9.0,
					"numinlets" : 2,
					"patching_rect" : [ 293.0, 110.0, 61.0, 17.0 ],
					"id" : "obj-17",
					"fontname" : "Arial",
					"numoutlets" : 1
				}

			}
, 			{
				"box" : 				{
					"maxclass" : "flonum",
					"outlettype" : [ "float", "bang" ],
					"fontsize" : 10.0,
					"numinlets" : 1,
					"patching_rect" : [ 176.0, 61.0, 50.0, 18.0 ],
					"id" : "obj-6",
					"fontname" : "Arial",
					"numoutlets" : 2
				}

			}
, 			{
				"box" : 				{
					"maxclass" : "newobj",
					"text" : "*~ 1.",
					"outlettype" : [ "signal" ],
					"fontsize" : 9.0,
					"numinlets" : 2,
					"patching_rect" : [ 230.0, 139.0, 35.0, 17.0 ],
					"id" : "obj-8",
					"fontname" : "Arial",
					"numoutlets" : 1
				}

			}
, 			{
				"box" : 				{
					"maxclass" : "newobj",
					"text" : "route /pit1 /pit2",
					"outlettype" : [ "", "", "" ],
					"fontsize" : 9.0,
					"numinlets" : 1,
					"patching_rect" : [ 229.0, 35.0, 70.0, 17.0 ],
					"id" : "obj-10",
					"fontname" : "Arial",
					"numoutlets" : 3
				}

			}
, 			{
				"box" : 				{
					"maxclass" : "message",
					"text" : "$1 2",
					"outlettype" : [ "" ],
					"fontsize" : 9.0,
					"numinlets" : 2,
					"patching_rect" : [ 229.0, 61.0, 31.0, 15.0 ],
					"id" : "obj-11",
					"fontname" : "Arial",
					"numoutlets" : 1
				}

			}
, 			{
				"box" : 				{
					"maxclass" : "newobj",
					"text" : "line~",
					"outlettype" : [ "signal", "bang" ],
					"fontsize" : 9.0,
					"numinlets" : 2,
					"patching_rect" : [ 229.0, 82.0, 32.0, 17.0 ],
					"id" : "obj-12",
					"fontname" : "Arial",
					"numoutlets" : 2
				}

			}
, 			{
				"box" : 				{
					"maxclass" : "gain~",
					"outlettype" : [ "signal", "int" ],
					"numinlets" : 2,
					"patching_rect" : [ 268.0, 163.0, 15.0, 52.0 ],
					"id" : "obj-14",
					"numoutlets" : 2,
					"orientation" : 2
				}

			}
, 			{
				"box" : 				{
					"maxclass" : "newobj",
					"text" : "cycle~ 500",
					"outlettype" : [ "signal" ],
					"fontsize" : 9.0,
					"numinlets" : 2,
					"patching_rect" : [ 230.0, 110.0, 61.0, 17.0 ],
					"id" : "obj-15",
					"fontname" : "Arial",
					"numoutlets" : 1
				}

			}
, 			{
				"box" : 				{
					"maxclass" : "newobj",
					"text" : "udpreceive 10000",
					"outlettype" : [ "" ],
					"fontsize" : 9.0,
					"numinlets" : 1,
					"patching_rect" : [ 229.0, 12.0, 82.0, 17.0 ],
					"id" : "obj-16",
					"fontname" : "Arial",
					"numoutlets" : 1
				}

			}
, 			{
				"box" : 				{
					"maxclass" : "ezdac~",
					"numinlets" : 2,
					"patching_rect" : [ 253.0, 224.0, 33.0, 33.0 ],
					"id" : "obj-20",
					"numoutlets" : 0
				}

			}
, 			{
				"box" : 				{
					"maxclass" : "slider",
					"outlettype" : [ "" ],
					"numinlets" : 1,
					"patching_rect" : [ 103.0, 17.0, 20.0, 140.0 ],
					"id" : "obj-3",
					"numoutlets" : 1
				}

			}
, 			{
				"box" : 				{
					"maxclass" : "newobj",
					"text" : "ctlout 102",
					"fontsize" : 10.0,
					"numinlets" : 3,
					"patching_rect" : [ 103.0, 161.0, 54.0, 18.0 ],
					"id" : "obj-4",
					"fontname" : "Arial",
					"numoutlets" : 0
				}

			}
, 			{
				"box" : 				{
					"maxclass" : "slider",
					"outlettype" : [ "" ],
					"numinlets" : 1,
					"patching_rect" : [ 40.0, 18.0, 20.0, 140.0 ],
					"id" : "obj-2",
					"numoutlets" : 1
				}

			}
, 			{
				"box" : 				{
					"maxclass" : "newobj",
					"text" : "ctlout 107",
					"fontsize" : 10.0,
					"numinlets" : 3,
					"patching_rect" : [ 40.0, 162.0, 54.0, 18.0 ],
					"id" : "obj-1",
					"fontname" : "Arial",
					"numoutlets" : 0
				}

			}
 ],
		"lines" : [ 			{
				"patchline" : 				{
					"source" : [ "obj-62", 0 ],
					"destination" : [ "obj-45", 0 ],
					"hidden" : 0,
					"midpoints" : [  ]
				}

			}
, 			{
				"patchline" : 				{
					"source" : [ "obj-61", 0 ],
					"destination" : [ "obj-45", 0 ],
					"hidden" : 0,
					"midpoints" : [  ]
				}

			}
, 			{
				"patchline" : 				{
					"source" : [ "obj-58", 0 ],
					"destination" : [ "obj-45", 0 ],
					"hidden" : 0,
					"midpoints" : [  ]
				}

			}
, 			{
				"patchline" : 				{
					"source" : [ "obj-57", 0 ],
					"destination" : [ "obj-45", 0 ],
					"hidden" : 0,
					"midpoints" : [  ]
				}

			}
, 			{
				"patchline" : 				{
					"source" : [ "obj-53", 0 ],
					"destination" : [ "obj-45", 0 ],
					"hidden" : 0,
					"midpoints" : [  ]
				}

			}
, 			{
				"patchline" : 				{
					"source" : [ "obj-54", 0 ],
					"destination" : [ "obj-45", 0 ],
					"hidden" : 0,
					"midpoints" : [  ]
				}

			}
, 			{
				"patchline" : 				{
					"source" : [ "obj-60", 0 ],
					"destination" : [ "obj-62", 0 ],
					"hidden" : 0,
					"midpoints" : [  ]
				}

			}
, 			{
				"patchline" : 				{
					"source" : [ "obj-59", 0 ],
					"destination" : [ "obj-61", 0 ],
					"hidden" : 0,
					"midpoints" : [  ]
				}

			}
, 			{
				"patchline" : 				{
					"source" : [ "obj-55", 0 ],
					"destination" : [ "obj-57", 0 ],
					"hidden" : 0,
					"midpoints" : [  ]
				}

			}
, 			{
				"patchline" : 				{
					"source" : [ "obj-56", 0 ],
					"destination" : [ "obj-58", 0 ],
					"hidden" : 0,
					"midpoints" : [  ]
				}

			}
, 			{
				"patchline" : 				{
					"source" : [ "obj-52", 0 ],
					"destination" : [ "obj-54", 0 ],
					"hidden" : 0,
					"midpoints" : [  ]
				}

			}
, 			{
				"patchline" : 				{
					"source" : [ "obj-51", 0 ],
					"destination" : [ "obj-53", 0 ],
					"hidden" : 0,
					"midpoints" : [  ]
				}

			}
, 			{
				"patchline" : 				{
					"source" : [ "obj-43", 0 ],
					"destination" : [ "obj-45", 0 ],
					"hidden" : 0,
					"midpoints" : [  ]
				}

			}
, 			{
				"patchline" : 				{
					"source" : [ "obj-44", 0 ],
					"destination" : [ "obj-45", 0 ],
					"hidden" : 0,
					"midpoints" : [  ]
				}

			}
, 			{
				"patchline" : 				{
					"source" : [ "obj-50", 0 ],
					"destination" : [ "obj-43", 0 ],
					"hidden" : 0,
					"midpoints" : [  ]
				}

			}
, 			{
				"patchline" : 				{
					"source" : [ "obj-46", 0 ],
					"destination" : [ "obj-44", 0 ],
					"hidden" : 0,
					"midpoints" : [  ]
				}

			}
, 			{
				"patchline" : 				{
					"source" : [ "obj-19", 0 ],
					"destination" : [ "obj-33", 0 ],
					"hidden" : 0,
					"midpoints" : [  ]
				}

			}
, 			{
				"patchline" : 				{
					"source" : [ "obj-28", 0 ],
					"destination" : [ "obj-34", 0 ],
					"hidden" : 0,
					"midpoints" : [  ]
				}

			}
, 			{
				"patchline" : 				{
					"source" : [ "obj-12", 0 ],
					"destination" : [ "obj-15", 0 ],
					"hidden" : 0,
					"midpoints" : [  ]
				}

			}
, 			{
				"patchline" : 				{
					"source" : [ "obj-11", 0 ],
					"destination" : [ "obj-12", 0 ],
					"hidden" : 0,
					"midpoints" : [  ]
				}

			}
, 			{
				"patchline" : 				{
					"source" : [ "obj-14", 0 ],
					"destination" : [ "obj-20", 1 ],
					"hidden" : 0,
					"midpoints" : [  ]
				}

			}
, 			{
				"patchline" : 				{
					"source" : [ "obj-8", 0 ],
					"destination" : [ "obj-14", 0 ],
					"hidden" : 0,
					"midpoints" : [  ]
				}

			}
, 			{
				"patchline" : 				{
					"source" : [ "obj-15", 0 ],
					"destination" : [ "obj-8", 0 ],
					"hidden" : 0,
					"midpoints" : [  ]
				}

			}
, 			{
				"patchline" : 				{
					"source" : [ "obj-14", 0 ],
					"destination" : [ "obj-20", 0 ],
					"hidden" : 0,
					"midpoints" : [  ]
				}

			}
, 			{
				"patchline" : 				{
					"source" : [ "obj-17", 0 ],
					"destination" : [ "obj-7", 0 ],
					"hidden" : 0,
					"midpoints" : [  ]
				}

			}
, 			{
				"patchline" : 				{
					"source" : [ "obj-9", 0 ],
					"destination" : [ "obj-13", 0 ],
					"hidden" : 0,
					"midpoints" : [  ]
				}

			}
, 			{
				"patchline" : 				{
					"source" : [ "obj-13", 0 ],
					"destination" : [ "obj-17", 0 ],
					"hidden" : 0,
					"midpoints" : [  ]
				}

			}
, 			{
				"patchline" : 				{
					"source" : [ "obj-7", 0 ],
					"destination" : [ "obj-14", 0 ],
					"hidden" : 0,
					"midpoints" : [  ]
				}

			}
, 			{
				"patchline" : 				{
					"source" : [ "obj-27", 0 ],
					"destination" : [ "obj-28", 0 ],
					"hidden" : 0,
					"midpoints" : [  ]
				}

			}
, 			{
				"patchline" : 				{
					"source" : [ "obj-33", 0 ],
					"destination" : [ "obj-34", 0 ],
					"hidden" : 0,
					"midpoints" : [  ]
				}

			}
, 			{
				"patchline" : 				{
					"source" : [ "obj-10", 1 ],
					"destination" : [ "obj-5", 0 ],
					"hidden" : 0,
					"midpoints" : [  ]
				}

			}
, 			{
				"patchline" : 				{
					"source" : [ "obj-10", 1 ],
					"destination" : [ "obj-9", 0 ],
					"hidden" : 0,
					"midpoints" : [  ]
				}

			}
, 			{
				"patchline" : 				{
					"source" : [ "obj-10", 0 ],
					"destination" : [ "obj-11", 0 ],
					"hidden" : 0,
					"midpoints" : [  ]
				}

			}
, 			{
				"patchline" : 				{
					"source" : [ "obj-10", 0 ],
					"destination" : [ "obj-6", 0 ],
					"hidden" : 0,
					"midpoints" : [  ]
				}

			}
, 			{
				"patchline" : 				{
					"source" : [ "obj-16", 0 ],
					"destination" : [ "obj-10", 0 ],
					"hidden" : 0,
					"midpoints" : [  ]
				}

			}
, 			{
				"patchline" : 				{
					"source" : [ "obj-2", 0 ],
					"destination" : [ "obj-1", 0 ],
					"hidden" : 0,
					"midpoints" : [  ]
				}

			}
, 			{
				"patchline" : 				{
					"source" : [ "obj-3", 0 ],
					"destination" : [ "obj-4", 0 ],
					"hidden" : 0,
					"midpoints" : [  ]
				}

			}
, 			{
				"patchline" : 				{
					"source" : [ "obj-18", 0 ],
					"destination" : [ "obj-23", 0 ],
					"hidden" : 0,
					"midpoints" : [  ]
				}

			}
, 			{
				"patchline" : 				{
					"source" : [ "obj-18", 1 ],
					"destination" : [ "obj-21", 0 ],
					"hidden" : 0,
					"midpoints" : [  ]
				}

			}
, 			{
				"patchline" : 				{
					"source" : [ "obj-18", 2 ],
					"destination" : [ "obj-22", 0 ],
					"hidden" : 0,
					"midpoints" : [  ]
				}

			}
, 			{
				"patchline" : 				{
					"source" : [ "obj-18", 3 ],
					"destination" : [ "obj-24", 0 ],
					"hidden" : 0,
					"midpoints" : [  ]
				}

			}
, 			{
				"patchline" : 				{
					"source" : [ "obj-18", 4 ],
					"destination" : [ "obj-25", 0 ],
					"hidden" : 0,
					"midpoints" : [  ]
				}

			}
, 			{
				"patchline" : 				{
					"source" : [ "obj-18", 6 ],
					"destination" : [ "obj-29", 0 ],
					"hidden" : 0,
					"midpoints" : [  ]
				}

			}
, 			{
				"patchline" : 				{
					"source" : [ "obj-18", 7 ],
					"destination" : [ "obj-30", 0 ],
					"hidden" : 0,
					"midpoints" : [  ]
				}

			}
, 			{
				"patchline" : 				{
					"source" : [ "obj-18", 8 ],
					"destination" : [ "obj-40", 0 ],
					"hidden" : 0,
					"midpoints" : [  ]
				}

			}
, 			{
				"patchline" : 				{
					"source" : [ "obj-18", 9 ],
					"destination" : [ "obj-39", 0 ],
					"hidden" : 0,
					"midpoints" : [  ]
				}

			}
, 			{
				"patchline" : 				{
					"source" : [ "obj-18", 10 ],
					"destination" : [ "obj-38", 0 ],
					"hidden" : 0,
					"midpoints" : [  ]
				}

			}
, 			{
				"patchline" : 				{
					"source" : [ "obj-18", 11 ],
					"destination" : [ "obj-37", 0 ],
					"hidden" : 0,
					"midpoints" : [  ]
				}

			}
, 			{
				"patchline" : 				{
					"source" : [ "obj-18", 12 ],
					"destination" : [ "obj-36", 0 ],
					"hidden" : 0,
					"midpoints" : [  ]
				}

			}
, 			{
				"patchline" : 				{
					"source" : [ "obj-18", 13 ],
					"destination" : [ "obj-35", 0 ],
					"hidden" : 0,
					"midpoints" : [  ]
				}

			}
, 			{
				"patchline" : 				{
					"source" : [ "obj-18", 14 ],
					"destination" : [ "obj-32", 0 ],
					"hidden" : 0,
					"midpoints" : [  ]
				}

			}
, 			{
				"patchline" : 				{
					"source" : [ "obj-18", 15 ],
					"destination" : [ "obj-31", 0 ],
					"hidden" : 0,
					"midpoints" : [  ]
				}

			}
, 			{
				"patchline" : 				{
					"source" : [ "obj-18", 5 ],
					"destination" : [ "obj-26", 0 ],
					"hidden" : 0,
					"midpoints" : [  ]
				}

			}
 ]
	}

}
