{
	"patcher" : 	{
		"fileversion" : 1,
		"rect" : [ 276.0, 429.0, 881.0, 330.0 ],
		"bglocked" : 0,
		"defrect" : [ 276.0, 429.0, 881.0, 330.0 ],
		"openrect" : [ 0.0, 0.0, 0.0, 0.0 ],
		"openinpresentation" : 0,
		"default_fontsize" : 10.0,
		"default_fontface" : 0,
		"default_fontname" : "Arial",
		"gridonopen" : 0,
		"gridsize" : [ 15.0, 15.0 ],
		"gridsnaponopen" : 0,
		"toolbarvisible" : 1,
		"boxanimatetime" : 200,
		"imprint" : 0,
		"metadata" : [  ],
		"boxes" : [ 			{
				"box" : 				{
					"maxclass" : "meter~",
					"numoutlets" : 1,
					"patching_rect" : [ 670.142883, 152.0, 12.0, 110.0 ],
					"outlettype" : [ "float" ],
					"id" : "obj-31",
					"numinlets" : 1,
					"presentation_rect" : [ 670.142883, 152.0, 0.0, 0.0 ]
				}

			}
, 			{
				"box" : 				{
					"maxclass" : "meter~",
					"numoutlets" : 1,
					"patching_rect" : [ 656.142883, 152.0, 12.0, 110.0 ],
					"outlettype" : [ "float" ],
					"id" : "obj-32",
					"numinlets" : 1,
					"presentation_rect" : [ 656.142883, 152.0, 0.0, 0.0 ]
				}

			}
, 			{
				"box" : 				{
					"maxclass" : "meter~",
					"numoutlets" : 1,
					"patching_rect" : [ 642.142883, 152.0, 12.0, 110.0 ],
					"outlettype" : [ "float" ],
					"id" : "obj-35",
					"numinlets" : 1,
					"presentation_rect" : [ 642.142883, 152.0, 0.0, 0.0 ]
				}

			}
, 			{
				"box" : 				{
					"maxclass" : "meter~",
					"numoutlets" : 1,
					"patching_rect" : [ 628.142883, 152.0, 12.0, 110.0 ],
					"outlettype" : [ "float" ],
					"id" : "obj-36",
					"numinlets" : 1,
					"presentation_rect" : [ 628.142883, 152.0, 0.0, 0.0 ]
				}

			}
, 			{
				"box" : 				{
					"maxclass" : "meter~",
					"numoutlets" : 1,
					"patching_rect" : [ 614.142883, 152.0, 12.0, 110.0 ],
					"outlettype" : [ "float" ],
					"id" : "obj-37",
					"numinlets" : 1,
					"presentation_rect" : [ 614.142883, 152.0, 0.0, 0.0 ]
				}

			}
, 			{
				"box" : 				{
					"maxclass" : "meter~",
					"numoutlets" : 1,
					"patching_rect" : [ 600.142883, 152.0, 12.0, 110.0 ],
					"outlettype" : [ "float" ],
					"id" : "obj-38",
					"numinlets" : 1,
					"presentation_rect" : [ 600.142883, 152.0, 0.0, 0.0 ]
				}

			}
, 			{
				"box" : 				{
					"maxclass" : "meter~",
					"numoutlets" : 1,
					"patching_rect" : [ 586.142883, 152.0, 12.0, 110.0 ],
					"outlettype" : [ "float" ],
					"id" : "obj-39",
					"numinlets" : 1,
					"presentation_rect" : [ 586.142883, 152.0, 0.0, 0.0 ]
				}

			}
, 			{
				"box" : 				{
					"maxclass" : "meter~",
					"numoutlets" : 1,
					"patching_rect" : [ 572.0, 152.0, 12.0, 110.0 ],
					"outlettype" : [ "float" ],
					"id" : "obj-40",
					"numinlets" : 1,
					"presentation_rect" : [ 572.0, 152.0, 0.0, 0.0 ]
				}

			}
, 			{
				"box" : 				{
					"maxclass" : "meter~",
					"numoutlets" : 1,
					"patching_rect" : [ 558.142883, 152.0, 12.0, 110.0 ],
					"outlettype" : [ "float" ],
					"id" : "obj-30",
					"numinlets" : 1
				}

			}
, 			{
				"box" : 				{
					"maxclass" : "meter~",
					"numoutlets" : 1,
					"patching_rect" : [ 544.142883, 152.0, 12.0, 110.0 ],
					"outlettype" : [ "float" ],
					"id" : "obj-29",
					"numinlets" : 1
				}

			}
, 			{
				"box" : 				{
					"maxclass" : "meter~",
					"numoutlets" : 1,
					"patching_rect" : [ 530.142883, 152.0, 12.0, 110.0 ],
					"outlettype" : [ "float" ],
					"id" : "obj-26",
					"numinlets" : 1
				}

			}
, 			{
				"box" : 				{
					"maxclass" : "meter~",
					"numoutlets" : 1,
					"patching_rect" : [ 516.142883, 152.0, 12.0, 110.0 ],
					"outlettype" : [ "float" ],
					"id" : "obj-25",
					"numinlets" : 1
				}

			}
, 			{
				"box" : 				{
					"maxclass" : "meter~",
					"numoutlets" : 1,
					"patching_rect" : [ 502.142853, 152.0, 12.0, 110.0 ],
					"outlettype" : [ "float" ],
					"id" : "obj-24",
					"numinlets" : 1
				}

			}
, 			{
				"box" : 				{
					"maxclass" : "meter~",
					"numoutlets" : 1,
					"patching_rect" : [ 488.142853, 152.0, 12.0, 110.0 ],
					"outlettype" : [ "float" ],
					"id" : "obj-22",
					"numinlets" : 1
				}

			}
, 			{
				"box" : 				{
					"maxclass" : "meter~",
					"numoutlets" : 1,
					"patching_rect" : [ 474.142853, 152.0, 12.0, 110.0 ],
					"outlettype" : [ "float" ],
					"id" : "obj-21",
					"numinlets" : 1
				}

			}
, 			{
				"box" : 				{
					"maxclass" : "meter~",
					"numoutlets" : 1,
					"patching_rect" : [ 460.0, 152.0, 12.0, 110.0 ],
					"outlettype" : [ "float" ],
					"id" : "obj-23",
					"numinlets" : 1
				}

			}
, 			{
				"box" : 				{
					"maxclass" : "newobj",
					"text" : "adc~ 1 2 3 4 5 6 7 8 9 10 11 12 13 14 15 16",
					"numoutlets" : 16,
					"patching_rect" : [ 457.0, 115.0, 221.5, 18.0 ],
					"outlettype" : [ "signal", "signal", "signal", "signal", "signal", "signal", "signal", "signal", "signal", "signal", "signal", "signal", "signal", "signal", "signal", "signal" ],
					"id" : "obj-18",
					"fontname" : "Arial",
					"fontsize" : 10.0,
					"numinlets" : 1
				}

			}
, 			{
				"box" : 				{
					"maxclass" : "number",
					"numoutlets" : 2,
					"patching_rect" : [ 51.0, 191.0, 50.0, 18.0 ],
					"outlettype" : [ "int", "bang" ],
					"id" : "obj-19",
					"fontname" : "Arial",
					"fontsize" : 10.0,
					"numinlets" : 1
				}

			}
, 			{
				"box" : 				{
					"maxclass" : "flonum",
					"triscale" : 0.9,
					"numoutlets" : 2,
					"minimum" : 0.0,
					"patching_rect" : [ 118.0, 191.0, 51.0, 17.0 ],
					"outlettype" : [ "float", "bang" ],
					"id" : "obj-27",
					"maximum" : 1.0,
					"fontname" : "Arial",
					"htextcolor" : [ 0.870588, 0.870588, 0.870588, 1.0 ],
					"bgcolor" : [ 0.866667, 0.866667, 0.866667, 1.0 ],
					"fontsize" : 9.0,
					"numinlets" : 1
				}

			}
, 			{
				"box" : 				{
					"maxclass" : "message",
					"text" : "/amp $1",
					"numoutlets" : 1,
					"patching_rect" : [ 118.0, 217.0, 49.0, 15.0 ],
					"outlettype" : [ "" ],
					"id" : "obj-28",
					"fontname" : "Arial",
					"fontsize" : 9.0,
					"numinlets" : 2
				}

			}
, 			{
				"box" : 				{
					"maxclass" : "message",
					"text" : "/pitch $1",
					"numoutlets" : 1,
					"patching_rect" : [ 51.0, 217.0, 53.0, 15.0 ],
					"outlettype" : [ "" ],
					"id" : "obj-33",
					"fontname" : "Arial",
					"fontsize" : 9.0,
					"numinlets" : 2
				}

			}
, 			{
				"box" : 				{
					"maxclass" : "newobj",
					"text" : "udpsend 127.0.0.1 10001",
					"numoutlets" : 0,
					"patching_rect" : [ 51.0, 240.0, 113.0, 17.0 ],
					"id" : "obj-34",
					"fontname" : "Arial",
					"fontsize" : 9.0,
					"numinlets" : 1
				}

			}
, 			{
				"box" : 				{
					"maxclass" : "flonum",
					"numoutlets" : 2,
					"patching_rect" : [ 324.0, 60.0, 50.0, 18.0 ],
					"outlettype" : [ "float", "bang" ],
					"id" : "obj-5",
					"fontname" : "Arial",
					"fontsize" : 10.0,
					"numinlets" : 1
				}

			}
, 			{
				"box" : 				{
					"maxclass" : "newobj",
					"text" : "*~ 1.",
					"numoutlets" : 1,
					"patching_rect" : [ 293.0, 139.0, 35.0, 17.0 ],
					"outlettype" : [ "signal" ],
					"id" : "obj-7",
					"fontname" : "Arial",
					"fontsize" : 9.0,
					"numinlets" : 2
				}

			}
, 			{
				"box" : 				{
					"maxclass" : "message",
					"text" : "$1 2",
					"numoutlets" : 1,
					"patching_rect" : [ 292.0, 61.0, 31.0, 15.0 ],
					"outlettype" : [ "" ],
					"id" : "obj-9",
					"fontname" : "Arial",
					"fontsize" : 9.0,
					"numinlets" : 2
				}

			}
, 			{
				"box" : 				{
					"maxclass" : "newobj",
					"text" : "line~",
					"numoutlets" : 2,
					"patching_rect" : [ 292.0, 82.0, 32.0, 17.0 ],
					"outlettype" : [ "signal", "bang" ],
					"id" : "obj-13",
					"fontname" : "Arial",
					"fontsize" : 9.0,
					"numinlets" : 2
				}

			}
, 			{
				"box" : 				{
					"maxclass" : "newobj",
					"text" : "cycle~ 500",
					"numoutlets" : 1,
					"patching_rect" : [ 293.0, 110.0, 61.0, 17.0 ],
					"outlettype" : [ "signal" ],
					"id" : "obj-17",
					"fontname" : "Arial",
					"fontsize" : 9.0,
					"numinlets" : 2
				}

			}
, 			{
				"box" : 				{
					"maxclass" : "flonum",
					"numoutlets" : 2,
					"patching_rect" : [ 176.0, 61.0, 50.0, 18.0 ],
					"outlettype" : [ "float", "bang" ],
					"id" : "obj-6",
					"fontname" : "Arial",
					"fontsize" : 10.0,
					"numinlets" : 1
				}

			}
, 			{
				"box" : 				{
					"maxclass" : "newobj",
					"text" : "*~ 1.",
					"numoutlets" : 1,
					"patching_rect" : [ 230.0, 139.0, 35.0, 17.0 ],
					"outlettype" : [ "signal" ],
					"id" : "obj-8",
					"fontname" : "Arial",
					"fontsize" : 9.0,
					"numinlets" : 2
				}

			}
, 			{
				"box" : 				{
					"maxclass" : "newobj",
					"text" : "route /pit1 /pit2",
					"numoutlets" : 3,
					"patching_rect" : [ 229.0, 35.0, 70.0, 17.0 ],
					"outlettype" : [ "", "", "" ],
					"id" : "obj-10",
					"fontname" : "Arial",
					"fontsize" : 9.0,
					"numinlets" : 1
				}

			}
, 			{
				"box" : 				{
					"maxclass" : "message",
					"text" : "$1 2",
					"numoutlets" : 1,
					"patching_rect" : [ 229.0, 61.0, 31.0, 15.0 ],
					"outlettype" : [ "" ],
					"id" : "obj-11",
					"fontname" : "Arial",
					"fontsize" : 9.0,
					"numinlets" : 2
				}

			}
, 			{
				"box" : 				{
					"maxclass" : "newobj",
					"text" : "line~",
					"numoutlets" : 2,
					"patching_rect" : [ 229.0, 82.0, 32.0, 17.0 ],
					"outlettype" : [ "signal", "bang" ],
					"id" : "obj-12",
					"fontname" : "Arial",
					"fontsize" : 9.0,
					"numinlets" : 2
				}

			}
, 			{
				"box" : 				{
					"maxclass" : "gain~",
					"numoutlets" : 2,
					"patching_rect" : [ 268.0, 163.0, 15.0, 52.0 ],
					"outlettype" : [ "signal", "int" ],
					"id" : "obj-14",
					"orientation" : 2,
					"numinlets" : 2
				}

			}
, 			{
				"box" : 				{
					"maxclass" : "newobj",
					"text" : "cycle~ 500",
					"numoutlets" : 1,
					"patching_rect" : [ 230.0, 110.0, 61.0, 17.0 ],
					"outlettype" : [ "signal" ],
					"id" : "obj-15",
					"fontname" : "Arial",
					"fontsize" : 9.0,
					"numinlets" : 2
				}

			}
, 			{
				"box" : 				{
					"maxclass" : "newobj",
					"text" : "udpreceive 10000",
					"numoutlets" : 1,
					"patching_rect" : [ 229.0, 12.0, 82.0, 17.0 ],
					"outlettype" : [ "" ],
					"id" : "obj-16",
					"fontname" : "Arial",
					"fontsize" : 9.0,
					"numinlets" : 1
				}

			}
, 			{
				"box" : 				{
					"maxclass" : "ezdac~",
					"numoutlets" : 0,
					"patching_rect" : [ 253.0, 224.0, 33.0, 33.0 ],
					"id" : "obj-20",
					"numinlets" : 2
				}

			}
, 			{
				"box" : 				{
					"maxclass" : "slider",
					"numoutlets" : 1,
					"patching_rect" : [ 103.0, 17.0, 20.0, 140.0 ],
					"outlettype" : [ "" ],
					"id" : "obj-3",
					"numinlets" : 1
				}

			}
, 			{
				"box" : 				{
					"maxclass" : "newobj",
					"text" : "ctlout 102",
					"numoutlets" : 0,
					"patching_rect" : [ 103.0, 161.0, 54.0, 18.0 ],
					"id" : "obj-4",
					"fontname" : "Arial",
					"fontsize" : 10.0,
					"numinlets" : 3
				}

			}
, 			{
				"box" : 				{
					"maxclass" : "slider",
					"numoutlets" : 1,
					"patching_rect" : [ 40.0, 18.0, 20.0, 140.0 ],
					"outlettype" : [ "" ],
					"id" : "obj-2",
					"numinlets" : 1
				}

			}
, 			{
				"box" : 				{
					"maxclass" : "newobj",
					"text" : "ctlout 107",
					"numoutlets" : 0,
					"patching_rect" : [ 40.0, 162.0, 54.0, 18.0 ],
					"id" : "obj-1",
					"fontname" : "Arial",
					"fontsize" : 10.0,
					"numinlets" : 3
				}

			}
 ],
		"lines" : [ 			{
				"patchline" : 				{
					"source" : [ "obj-18", 5 ],
					"destination" : [ "obj-26", 0 ],
					"hidden" : 0,
					"midpoints" : [  ]
				}

			}
, 			{
				"patchline" : 				{
					"source" : [ "obj-18", 15 ],
					"destination" : [ "obj-31", 0 ],
					"hidden" : 0,
					"midpoints" : [  ]
				}

			}
, 			{
				"patchline" : 				{
					"source" : [ "obj-18", 14 ],
					"destination" : [ "obj-32", 0 ],
					"hidden" : 0,
					"midpoints" : [  ]
				}

			}
, 			{
				"patchline" : 				{
					"source" : [ "obj-18", 13 ],
					"destination" : [ "obj-35", 0 ],
					"hidden" : 0,
					"midpoints" : [  ]
				}

			}
, 			{
				"patchline" : 				{
					"source" : [ "obj-18", 12 ],
					"destination" : [ "obj-36", 0 ],
					"hidden" : 0,
					"midpoints" : [  ]
				}

			}
, 			{
				"patchline" : 				{
					"source" : [ "obj-18", 11 ],
					"destination" : [ "obj-37", 0 ],
					"hidden" : 0,
					"midpoints" : [  ]
				}

			}
, 			{
				"patchline" : 				{
					"source" : [ "obj-18", 10 ],
					"destination" : [ "obj-38", 0 ],
					"hidden" : 0,
					"midpoints" : [  ]
				}

			}
, 			{
				"patchline" : 				{
					"source" : [ "obj-18", 9 ],
					"destination" : [ "obj-39", 0 ],
					"hidden" : 0,
					"midpoints" : [  ]
				}

			}
, 			{
				"patchline" : 				{
					"source" : [ "obj-18", 8 ],
					"destination" : [ "obj-40", 0 ],
					"hidden" : 0,
					"midpoints" : [  ]
				}

			}
, 			{
				"patchline" : 				{
					"source" : [ "obj-18", 7 ],
					"destination" : [ "obj-30", 0 ],
					"hidden" : 0,
					"midpoints" : [  ]
				}

			}
, 			{
				"patchline" : 				{
					"source" : [ "obj-18", 6 ],
					"destination" : [ "obj-29", 0 ],
					"hidden" : 0,
					"midpoints" : [  ]
				}

			}
, 			{
				"patchline" : 				{
					"source" : [ "obj-18", 4 ],
					"destination" : [ "obj-25", 0 ],
					"hidden" : 0,
					"midpoints" : [  ]
				}

			}
, 			{
				"patchline" : 				{
					"source" : [ "obj-18", 3 ],
					"destination" : [ "obj-24", 0 ],
					"hidden" : 0,
					"midpoints" : [  ]
				}

			}
, 			{
				"patchline" : 				{
					"source" : [ "obj-18", 2 ],
					"destination" : [ "obj-22", 0 ],
					"hidden" : 0,
					"midpoints" : [  ]
				}

			}
, 			{
				"patchline" : 				{
					"source" : [ "obj-18", 1 ],
					"destination" : [ "obj-21", 0 ],
					"hidden" : 0,
					"midpoints" : [  ]
				}

			}
, 			{
				"patchline" : 				{
					"source" : [ "obj-18", 0 ],
					"destination" : [ "obj-23", 0 ],
					"hidden" : 0,
					"midpoints" : [  ]
				}

			}
, 			{
				"patchline" : 				{
					"source" : [ "obj-3", 0 ],
					"destination" : [ "obj-4", 0 ],
					"hidden" : 0,
					"midpoints" : [  ]
				}

			}
, 			{
				"patchline" : 				{
					"source" : [ "obj-2", 0 ],
					"destination" : [ "obj-1", 0 ],
					"hidden" : 0,
					"midpoints" : [  ]
				}

			}
, 			{
				"patchline" : 				{
					"source" : [ "obj-16", 0 ],
					"destination" : [ "obj-10", 0 ],
					"hidden" : 0,
					"midpoints" : [  ]
				}

			}
, 			{
				"patchline" : 				{
					"source" : [ "obj-10", 0 ],
					"destination" : [ "obj-6", 0 ],
					"hidden" : 0,
					"midpoints" : [  ]
				}

			}
, 			{
				"patchline" : 				{
					"source" : [ "obj-10", 0 ],
					"destination" : [ "obj-11", 0 ],
					"hidden" : 0,
					"midpoints" : [  ]
				}

			}
, 			{
				"patchline" : 				{
					"source" : [ "obj-10", 1 ],
					"destination" : [ "obj-9", 0 ],
					"hidden" : 0,
					"midpoints" : [  ]
				}

			}
, 			{
				"patchline" : 				{
					"source" : [ "obj-10", 1 ],
					"destination" : [ "obj-5", 0 ],
					"hidden" : 0,
					"midpoints" : [  ]
				}

			}
, 			{
				"patchline" : 				{
					"source" : [ "obj-33", 0 ],
					"destination" : [ "obj-34", 0 ],
					"hidden" : 0,
					"midpoints" : [  ]
				}

			}
, 			{
				"patchline" : 				{
					"source" : [ "obj-27", 0 ],
					"destination" : [ "obj-28", 0 ],
					"hidden" : 0,
					"midpoints" : [  ]
				}

			}
, 			{
				"patchline" : 				{
					"source" : [ "obj-7", 0 ],
					"destination" : [ "obj-14", 0 ],
					"hidden" : 0,
					"midpoints" : [  ]
				}

			}
, 			{
				"patchline" : 				{
					"source" : [ "obj-13", 0 ],
					"destination" : [ "obj-17", 0 ],
					"hidden" : 0,
					"midpoints" : [  ]
				}

			}
, 			{
				"patchline" : 				{
					"source" : [ "obj-9", 0 ],
					"destination" : [ "obj-13", 0 ],
					"hidden" : 0,
					"midpoints" : [  ]
				}

			}
, 			{
				"patchline" : 				{
					"source" : [ "obj-17", 0 ],
					"destination" : [ "obj-7", 0 ],
					"hidden" : 0,
					"midpoints" : [  ]
				}

			}
, 			{
				"patchline" : 				{
					"source" : [ "obj-14", 0 ],
					"destination" : [ "obj-20", 0 ],
					"hidden" : 0,
					"midpoints" : [  ]
				}

			}
, 			{
				"patchline" : 				{
					"source" : [ "obj-15", 0 ],
					"destination" : [ "obj-8", 0 ],
					"hidden" : 0,
					"midpoints" : [  ]
				}

			}
, 			{
				"patchline" : 				{
					"source" : [ "obj-8", 0 ],
					"destination" : [ "obj-14", 0 ],
					"hidden" : 0,
					"midpoints" : [  ]
				}

			}
, 			{
				"patchline" : 				{
					"source" : [ "obj-14", 0 ],
					"destination" : [ "obj-20", 1 ],
					"hidden" : 0,
					"midpoints" : [  ]
				}

			}
, 			{
				"patchline" : 				{
					"source" : [ "obj-11", 0 ],
					"destination" : [ "obj-12", 0 ],
					"hidden" : 0,
					"midpoints" : [  ]
				}

			}
, 			{
				"patchline" : 				{
					"source" : [ "obj-12", 0 ],
					"destination" : [ "obj-15", 0 ],
					"hidden" : 0,
					"midpoints" : [  ]
				}

			}
, 			{
				"patchline" : 				{
					"source" : [ "obj-28", 0 ],
					"destination" : [ "obj-34", 0 ],
					"hidden" : 0,
					"midpoints" : [  ]
				}

			}
, 			{
				"patchline" : 				{
					"source" : [ "obj-19", 0 ],
					"destination" : [ "obj-33", 0 ],
					"hidden" : 0,
					"midpoints" : [  ]
				}

			}
 ]
	}

}
